<svg width="36" height="27" viewBox="0 0 36 27" fill="none" xmlns="http://www.w3.org/2000/svg">
<path d="M13.8534 26.6339C13.6593 26.8351 13.3379 26.8379 13.1402 26.6402L0.353554 13.8536C0.158291 13.6583 0.158291 13.3417 0.353553 13.1464L13.1402 0.359811C13.3379 0.162122 13.6593 0.164941 13.8534 0.366067L16.3087 2.90905C16.4982 3.10525 16.4954 3.41706 16.3026 3.60991L9.51605 10.3964C9.20107 10.7114 9.42416 11.25 9.86961 11.25H22.3313H35.5C35.7761 11.25 36 11.4739 36 11.75V15.25C36 15.5261 35.7761 15.75 35.5 15.75H9.86961C9.42416 15.75 9.20107 16.2886 9.51605 16.6036L16.3026 23.3901C16.4954 23.5829 16.4982 23.8947 16.3087 24.0909L13.8534 26.6339Z" fill="#2E2559"/>
</svg>
