<svg width="25" height="22" viewBox="0 0 25 22" fill="none" xmlns="http://www.w3.org/2000/svg">
<path d="M22.2727 0.636364C21.0366 0.190909 19.678 0 18.375 0C16.2034 0 13.8648 0.509091 12.25 1.90909C10.6352 0.509091 8.29659 0 6.125 0C3.95341 0 1.61477 0.509091 0 1.90909V20.5545C0 20.8727 0.278409 21.1909 0.556818 21.1909C0.668182 21.1909 0.723864 21.1273 0.835227 21.1273C2.33864 20.3 4.51023 19.7273 6.125 19.7273C8.29659 19.7273 10.6352 20.2364 12.25 21.6364C13.7534 20.5545 16.4818 19.7273 18.375 19.7273C20.2125 19.7273 22.1057 20.1091 23.6648 21.0636C23.7761 21.1273 23.8318 21.1273 23.9432 21.1273C24.2216 21.1273 24.5 20.8091 24.5 20.4909V1.90909C23.8318 1.33636 23.108 0.954545 22.2727 0.636364ZM22.2727 17.8182C21.0477 17.3727 19.7114 17.1818 18.375 17.1818C16.4818 17.1818 13.7534 18.0091 12.25 19.0909V4.45455C13.7534 3.37273 16.4818 2.54545 18.375 2.54545C19.7114 2.54545 21.0477 2.73636 22.2727 3.18182V17.8182Z" fill="white"/>
<path d="M18.3746 7.63614C19.3546 7.63614 20.3012 7.75069 21.1587 7.96705V6.03251C20.279 5.8416 19.3324 5.72705 18.3746 5.72705C16.4815 5.72705 14.7665 6.09614 13.3633 6.78341V8.89614C14.6217 8.0816 16.3701 7.63614 18.3746 7.63614Z" fill="white"/>
<path d="M13.3633 10.1682V12.2809C14.6217 11.4664 16.3701 11.0209 18.3746 11.0209C19.3546 11.0209 20.3012 11.1355 21.1587 11.3518V9.41727C20.279 9.22636 19.3324 9.11182 18.3746 9.11182C16.4815 9.11182 14.7665 9.49363 13.3633 10.1682Z" fill="white"/>
<path d="M18.3746 12.5107C16.4815 12.5107 14.7665 12.8798 13.3633 13.5671V15.6798C14.6217 14.8653 16.3701 14.4198 18.3746 14.4198C19.3546 14.4198 20.3012 14.5344 21.1587 14.7507V12.8162C20.279 12.6126 19.3324 12.5107 18.3746 12.5107Z" fill="white"/>
</svg>
