<svg width="24" height="22" viewBox="0 0 24 22" fill="none" xmlns="http://www.w3.org/2000/svg">
<path fill-rule="evenodd" clip-rule="evenodd" d="M21.3335 0.5H2.66683C1.3835 0.5 0.333496 1.55 0.333496 2.83333V19.1667C0.333496 20.45 1.3835 21.5 2.66683 21.5H21.3335C22.6168 21.5 23.6668 20.45 23.6668 19.1667V2.83333C23.6668 1.55 22.6168 0.5 21.3335 0.5ZM9.66683 16.8333H3.8335V14.5H9.66683V16.8333ZM9.66683 12.1667H3.8335V9.83333H9.66683V12.1667ZM9.66683 7.5H3.8335V5.16667H9.66683V7.5ZM15.2902 14.5L12.0002 11.1867L13.6452 9.54167L15.2902 11.1983L18.9885 7.5L20.6452 9.15667L15.2902 14.5Z" fill="currentColor"/>
</svg>
