<svg width="25" height="25" viewBox="0 0 25 25" fill="none" xmlns="http://www.w3.org/2000/svg">
<path d="M17.7085 8.33398H20.8335C21.1097 8.33398 21.3746 8.44371 21.57 8.63903C21.7653 8.83435 21.875 9.09926 21.875 9.37548V20.834C21.875 21.1102 21.7653 21.3751 21.57 21.5704C21.3746 21.7658 21.1097 21.8755 20.8335 21.8755H4.1665C3.89028 21.8755 3.62537 21.7658 3.43005 21.5704C3.23473 21.3751 3.125 21.1102 3.125 20.834V9.37548C3.125 9.09926 3.23473 8.83435 3.43005 8.63903C3.62537 8.44371 3.89028 8.33398 4.1665 8.33398H11.4585" stroke="#4E91FF" stroke-width="2" stroke-linecap="round" stroke-linejoin="round"/>
<path d="M4.1665 8.33382C3.89028 8.33382 3.62537 8.44355 3.43005 8.63887C3.23473 8.83419 3.125 9.0991 3.125 9.37532V20.8338C3.125 21.11 3.23473 21.375 3.43005 21.5703C3.62537 21.7656 3.89028 21.8753 4.1665 21.8753H7.2915V8.33382H4.1665ZM19.49 4.88532L18.032 3.42682C17.8373 3.23587 17.5755 3.12891 17.3027 3.12891C17.03 3.12891 16.7682 3.23587 16.5735 3.42682L11.4585 8.54182V11.4583H14.3755L19.4905 6.34332C19.6813 6.14864 19.7882 5.88691 19.7882 5.61432C19.7882 5.34173 19.6808 5.08 19.49 4.88532Z" stroke="#2E2559" stroke-width="2" stroke-linecap="round" stroke-linejoin="round"/>
</svg>
