<svg width="24" height="24" viewBox="0 0 24 24" fill="none" xmlns="http://www.w3.org/2000/svg">
<path opacity="0.5" d="M14.952 3C13.915 3 13.08 3.835 11.41 5.505L6.5 10.415L13.585 17.5L18.495 12.59C20.165 10.92 21 10.085 21 9.048C21 8.01 20.165 7.175 18.495 5.505C16.825 3.835 15.99 3 14.952 3Z" fill="black"/>
<path d="M13.585 17.5L6.5 10.415L5.505 11.41C3.835 13.08 3 13.915 3 14.952C3 15.99 3.835 16.825 5.505 18.495C7.175 20.165 8.01 21 9.048 21C10.085 21 10.92 20.165 12.59 18.495L13.585 17.5Z" fill="#565656"/>
</svg>
