<svg width="15" height="20" viewBox="0 0 15 20" fill="none" xmlns="http://www.w3.org/2000/svg">
<path d="M10 8.5C9.20435 8.5 8.44129 8.18393 7.87868 7.62132C7.31607 7.05871 7 6.29565 7 5.5V1.5H3C2.46957 1.5 1.96086 1.71071 1.58579 2.08579C1.21071 2.46086 1 2.96957 1 3.5V16.5C1 17.0304 1.21071 17.5391 1.58579 17.9142C1.96086 18.2893 2.46957 18.5 3 18.5H12C12.5304 18.5 13.0391 18.2893 13.4142 17.9142C13.7893 17.5391 14 17.0304 14 16.5V8.5H10ZM8 5.5C8 6.03043 8.21071 6.53914 8.58579 6.91421C8.96086 7.28929 9.46957 7.5 10 7.5H13.59L8 1.91V5.5ZM3 0.5H8L15 7.5V16.5C15 17.2956 14.6839 18.0587 14.1213 18.6213C13.5587 19.1839 12.7956 19.5 12 19.5H3C2.20435 19.5 1.44129 19.1839 0.87868 18.6213C0.316071 18.0587 0 17.2956 0 16.5V3.5C0 2.70435 0.316071 1.94129 0.87868 1.37868C1.44129 0.816071 2.20435 0.5 3 0.5Z" fill="black"/>
</svg>
