<svg width="19" height="16" viewBox="0 0 19 16" fill="none" xmlns="http://www.w3.org/2000/svg">
<path d="M3 0.5H7L10 3.5H16C16.7956 3.5 17.5587 3.81607 18.1213 4.37868C18.6839 4.94129 19 5.70435 19 6.5V12.5C19 13.2956 18.6839 14.0587 18.1213 14.6213C17.5587 15.1839 16.7956 15.5 16 15.5H3C2.20435 15.5 1.44129 15.1839 0.87868 14.6213C0.316071 14.0587 0 13.2956 0 12.5V3.5C0 2.70435 0.316071 1.94129 0.87868 1.37868C1.44129 0.816071 2.20435 0.5 3 0.5ZM3 1.5C2.46957 1.5 1.96086 1.71071 1.58579 2.08579C1.21071 2.46086 1 2.96957 1 3.5V12.5C1 13.0304 1.21071 13.5391 1.58579 13.9142C1.96086 14.2893 2.46957 14.5 3 14.5H16C16.5304 14.5 17.0391 14.2893 17.4142 13.9142C17.7893 13.5391 18 13.0304 18 12.5V6.5C18 5.96957 17.7893 5.46086 17.4142 5.08579C17.0391 4.71071 16.5304 4.5 16 4.5H9.59L6.59 1.5H3Z" fill="black"/>
</svg>
