<svg width="28" height="28" viewBox="0 0 28 28" fill="none" xmlns="http://www.w3.org/2000/svg">
<g clip-path="url(#clip0_400_2971)">
<path d="M23.3335 6.99984H14.0002L11.6668 4.6665H4.66683C3.3835 4.6665 2.34516 5.7165 2.34516 6.99984L2.3335 20.9998C2.3335 22.2832 3.3835 23.3332 4.66683 23.3332H23.3335C24.6168 23.3332 25.6668 22.2832 25.6668 20.9998V9.33317C25.6668 8.04984 24.6168 6.99984 23.3335 6.99984ZM9.13516 18.6665L5.8335 15.3648L7.4785 13.7198L9.1235 15.3648L13.2535 11.2348L14.8985 12.8798L9.13516 18.6665ZM20.3118 15.1665L22.1668 17.0215L20.5218 18.6665L18.6668 16.8115L16.8118 18.6665L15.1668 17.0215L17.0218 15.1665L15.1668 13.3115L16.8118 11.6665L18.6668 13.5215L20.5218 11.6665L22.1668 13.3115L20.3118 15.1665Z" fill="black"/>
</g>
<defs>
<clipPath id="clip0_400_2971">
<rect width="28" height="28" fill="white"/>
</clipPath>
</defs>
</svg>
