<svg width="28" height="28" viewBox="0 0 28 28" fill="none" xmlns="http://www.w3.org/2000/svg">
<path d="M3.49984 17.821C3.49984 18.3849 3.69428 18.8224 4.08317 19.1335C4.47206 19.4446 5.11373 19.6488 6.00817 19.746C6.31928 19.7849 6.5672 19.9259 6.75192 20.1689C6.93664 20.412 7.01928 20.6891 6.99984 21.0002C6.98039 21.3307 6.86373 21.6029 6.64984 21.8168C6.43595 22.0307 6.17345 22.1182 5.86234 22.0793C4.28734 21.8849 3.11095 21.4328 2.33317 20.7231C1.55539 20.0134 1.1665 19.046 1.1665 17.821C1.1665 16.5571 1.68664 15.5314 2.72692 14.7439C3.7672 13.9564 5.21095 13.4849 7.05817 13.3293C7.8165 13.271 8.38525 13.1495 8.76442 12.9647C9.14359 12.78 9.33317 12.5224 9.33317 12.1918C9.33317 11.7641 9.129 11.4286 8.72067 11.1856C8.31234 10.9425 7.6415 10.7529 6.70817 10.6168C6.39706 10.5779 6.14914 10.4321 5.96442 10.1793C5.7797 9.92655 5.70678 9.64461 5.74567 9.3335C5.78456 9.00294 5.92067 8.73558 6.154 8.53141C6.38734 8.32725 6.65956 8.24461 6.97067 8.2835C8.58456 8.51683 9.77067 8.94947 10.529 9.58141C11.2873 10.2134 11.6665 11.0835 11.6665 12.1918C11.6665 13.2224 11.2922 14.0293 10.5436 14.6127C9.79498 15.196 8.6915 15.546 7.23317 15.6627C5.98873 15.7599 5.05539 15.9884 4.43317 16.3481C3.81095 16.7078 3.49984 17.1988 3.49984 17.821ZM16.1873 21.2918L11.3748 16.4793L21.4373 6.41683C21.8262 6.02794 22.288 5.8335 22.8228 5.8335C23.3575 5.8335 23.8193 6.02794 24.2082 6.41683L26.2498 8.4585C26.6387 8.84738 26.8332 9.30919 26.8332 9.84391C26.8332 10.3786 26.6387 10.8404 26.2498 11.2293L16.1873 21.2918ZM10.4707 23.3335C10.1401 23.4113 9.84845 23.3238 9.59567 23.071C9.34289 22.8182 9.25539 22.5266 9.33317 22.196L10.2373 17.7918L14.8457 22.4002L10.4707 23.3335Z" fill="black"/>
</svg>
