<svg width="24" height="20" viewBox="0 0 24 20" fill="none" xmlns="http://www.w3.org/2000/svg">
<path d="M21.3335 2.99984H12.0002L9.66683 0.666504H2.66683C1.3835 0.666504 0.345163 1.7165 0.345163 2.99984L0.333496 16.9998C0.333496 18.2832 1.3835 19.3332 2.66683 19.3332H21.3335C22.6168 19.3332 23.6668 18.2832 23.6668 16.9998V5.33317C23.6668 4.04984 22.6168 2.99984 21.3335 2.99984ZM7.13516 14.6665L3.8335 11.3648L5.4785 9.71984L7.1235 11.3648L11.2535 7.23484L12.8985 8.87984L7.13516 14.6665ZM18.3118 11.1665L20.1668 13.0215L18.5218 14.6665L16.6668 12.8115L14.8118 14.6665L13.1668 13.0215L15.0218 11.1665L13.1668 9.3115L14.8118 7.6665L16.6668 9.5215L18.5218 7.6665L20.1668 9.3115L18.3118 11.1665Z" fill="black"/>
</svg>
