<svg width="24" height="24" viewBox="0 0 24 24" fill="none" xmlns="http://www.w3.org/2000/svg">
<circle cx="12" cy="12" r="10" transform="rotate(180 12 12)" fill="#DCDCDC"/>
<path d="M14 15.5998L14 8.39955C13.9998 8.32666 13.983 8.2552 13.9515 8.19288C13.9199 8.13056 13.8747 8.07973 13.8208 8.04587C13.7669 8.012 13.7064 7.99639 13.6456 8.0007C13.5849 8.00502 13.5262 8.02909 13.4761 8.07035L9.13499 11.6704C8.955 11.8197 8.955 12.1789 9.13499 12.3285L13.4761 15.9286C13.5261 15.9702 13.5848 15.9947 13.6456 15.9992C13.7065 16.0038 13.7672 15.9883 13.8212 15.9544C13.8752 15.9205 13.9204 15.8695 13.952 15.807C13.9835 15.7445 14.0001 15.6728 14 15.5998Z" fill="#949494"/>
</svg>
