<svg width="24" height="24" viewBox="0 0 24 24" fill="none" xmlns="http://www.w3.org/2000/svg">
<path d="M11.3 20C11.4 20.3333 11.5377 20.6793 11.713 21.038C11.8883 21.3967 12.0673 21.7173 12.25 22H5C4.45 22 3.97933 21.8043 3.588 21.413C3.19667 21.0217 3.00067 20.5507 3 20V4C3 3.45 3.196 2.97933 3.588 2.588C3.98 2.19667 4.45067 2.00067 5 2H17C17.55 2 18.021 2.196 18.413 2.588C18.805 2.98 19.0007 3.45067 19 4V11.1C18.7 11.0667 18.3667 11.05 18 11.05C17.6333 11.05 17.3 11.0667 17 11.1V4H12V11L9.5 9.5L7 11V4H5V20H11.3ZM18 23C16.6167 23 15.4377 22.5123 14.463 21.537C13.4883 20.5617 13.0007 19.3827 13 18C12.9993 16.6173 13.487 15.4383 14.463 14.463C15.439 13.4877 16.618 13 18 13C19.382 13 20.5613 13.4877 21.538 14.463C22.5147 15.4383 23.002 16.6173 23 18C22.998 19.3827 22.5103 20.562 21.537 21.538C20.5637 22.514 19.3847 23.0013 18 23ZM16.75 20.5L20.75 18L16.75 15.5V20.5ZM11.3 4H5H17H11H11.3Z" fill="#2E2559"/>
</svg>
