<svg width="24" height="24" viewBox="0 0 24 24" fill="none" xmlns="http://www.w3.org/2000/svg">
<path d="M12 21.75C6.62391 21.75 2.25 17.3761 2.25 12C2.25 6.62391 6.62391 2.25 12 2.25C17.3761 2.25 21.75 6.62391 21.75 12C21.75 17.3761 17.3761 21.75 12 21.75ZM12 3.75C7.45312 3.75 3.75 7.45312 3.75 12C3.75 16.5469 7.45312 20.25 12 20.25C16.5469 20.25 20.25 16.5492 20.25 12C20.25 7.45078 16.5492 3.75 12 3.75Z" fill="#2E2559"/>
<path d="M16.4998 17.2971C16.3953 17.2973 16.2918 17.2755 16.1962 17.2332C16.1006 17.1909 16.015 17.1289 15.9448 17.0514L6.94481 7.20768C6.81384 7.06005 6.74634 6.86674 6.75694 6.66967C6.76755 6.4726 6.8554 6.28765 7.00145 6.15492C7.1475 6.02219 7.33999 5.95238 7.53717 5.96062C7.73435 5.96885 7.92034 6.05448 8.05481 6.19893L17.0548 16.0427C17.1525 16.1502 17.2169 16.2838 17.2401 16.4272C17.2633 16.5706 17.2444 16.7177 17.1856 16.8505C17.1268 16.9834 17.0307 17.0963 16.909 17.1756C16.7872 17.2548 16.6451 17.297 16.4998 17.2971Z" fill="#2E2559"/>
<path d="M16.4998 11.6352V10.5196C16.5016 10.3373 16.4381 10.1603 16.3208 10.0207C16.2036 9.88114 16.0403 9.78806 15.8604 9.75832C15.3973 9.68894 14.9998 10.0635 14.9998 10.5139V11.6352C14.9991 11.8906 14.9503 12.1436 14.8559 12.381C14.843 12.4136 14.8395 12.4491 14.8458 12.4836C14.8521 12.518 14.868 12.55 14.8915 12.576L15.791 13.565C15.8008 13.5758 15.813 13.5842 15.8266 13.5895C15.8402 13.5948 15.8548 13.5968 15.8693 13.5955C15.8839 13.5941 15.8979 13.5894 15.9102 13.5816C15.9226 13.5739 15.933 13.5634 15.9406 13.551C16.3031 12.9775 16.4968 12.3136 16.4998 11.6352V11.6352Z" fill="#2E2559"/>
<path d="M14.2502 11.25V8.25C14.2485 7.6538 14.0109 7.0825 13.5893 6.66092C13.1677 6.23934 12.5964 6.00173 12.0002 6V6C11.6139 6.00065 11.2343 6.10059 10.8978 6.2902C10.5612 6.47982 10.2791 6.75275 10.0784 7.08281C10.0574 7.11746 10.0482 7.15797 10.0522 7.19827C10.0561 7.23858 10.0731 7.27652 10.1004 7.30641L14.0576 11.6592C14.0693 11.6723 14.0846 11.6819 14.1015 11.6867C14.1185 11.6916 14.1364 11.6916 14.1534 11.6867C14.1703 11.6818 14.1855 11.6722 14.1973 11.6591C14.209 11.6459 14.2168 11.6297 14.2198 11.6123C14.2397 11.4926 14.2499 11.3714 14.2502 11.25V11.25Z" fill="#2E2559"/>
<path d="M11.5582 13.3687L9.8491 11.4885C9.84243 11.481 9.83351 11.4758 9.82366 11.4737C9.8138 11.4716 9.80354 11.4727 9.79438 11.4769C9.78523 11.4811 9.77768 11.4882 9.77284 11.497C9.76801 11.5059 9.76615 11.516 9.76754 11.526C9.82603 11.9869 10.025 12.4186 10.3374 12.7624C10.6498 13.1063 11.0605 13.3456 11.5136 13.4479C11.5237 13.4506 11.5344 13.4499 11.544 13.4459C11.5536 13.4418 11.5616 13.4347 11.5667 13.4256C11.5718 13.4165 11.5738 13.406 11.5722 13.3957C11.5707 13.3853 11.5657 13.3758 11.5582 13.3687V13.3687Z" fill="#2E2559"/>
<path d="M13.4789 16.5003H12.75V15.6688C12.9487 15.6336 13.1449 15.5857 13.3374 15.5253C13.3525 15.5207 13.3662 15.5123 13.3772 15.501C13.3882 15.4896 13.3961 15.4757 13.4003 15.4604C13.4044 15.4452 13.4047 15.4291 13.401 15.4137C13.3973 15.3984 13.3897 15.3842 13.3791 15.3725L12.3914 14.2855C12.3722 14.2641 12.3482 14.2475 12.3215 14.237C12.2947 14.2265 12.2658 14.2224 12.2372 14.225C12.158 14.2321 12.0783 14.2363 12 14.2363C10.3125 14.2363 9.00001 12.8385 9.00001 11.6357V10.5191C9.00188 10.321 8.92653 10.1299 8.78994 9.98643C8.65335 9.84293 8.46625 9.75825 8.2683 9.75034C8.16812 9.74731 8.06837 9.76451 7.975 9.8009C7.88162 9.83728 7.79653 9.89212 7.72482 9.96212C7.65311 10.0321 7.59624 10.1159 7.55762 10.2083C7.51899 10.3008 7.4994 10.4001 7.50001 10.5003V11.6357C7.50001 12.7307 8.01283 13.7736 8.94329 14.5728C9.60079 15.1372 10.3972 15.5156 11.25 15.6688V16.5003H10.5211C10.1175 16.5003 9.77111 16.8107 9.75095 17.2142C9.74607 17.3157 9.76182 17.417 9.79726 17.5121C9.8327 17.6073 9.88708 17.6942 9.95712 17.7677C10.0272 17.8412 10.1114 17.8997 10.2047 17.9397C10.298 17.9797 10.3985 18.0003 10.5 18.0003H13.5C13.6016 18.0005 13.7022 17.9799 13.7956 17.94C13.889 17.9001 13.9734 17.8416 14.0435 17.7681C14.1137 17.6946 14.1681 17.6076 14.2036 17.5124C14.2391 17.4172 14.2549 17.3157 14.25 17.2142C14.2303 16.8107 13.8825 16.5003 13.4789 16.5003Z" fill="#2E2559"/>
</svg>
