<svg width="24" height="24" viewBox="0 0 24 24" fill="none" xmlns="http://www.w3.org/2000/svg">
<path fill-rule="evenodd" clip-rule="evenodd" d="M2.25 12C2.25 6.61704 6.61704 2.25 12 2.25C17.383 2.25 21.75 6.61704 21.75 12C21.75 17.383 17.383 21.75 12 21.75C6.61704 21.75 2.25 17.383 2.25 12ZM12 3.75C7.44546 3.75 3.75 7.44546 3.75 12C3.75 16.5545 7.44546 20.25 12 20.25C16.5545 20.25 20.25 16.5545 20.25 12C20.25 7.44546 16.5545 3.75 12 3.75Z" fill="#2E2559"/>
<path fill-rule="evenodd" clip-rule="evenodd" d="M9.75 17.25C9.75 16.8358 10.0858 16.5 10.5 16.5H13.5C13.9142 16.5 14.25 16.8358 14.25 17.25C14.25 17.6642 13.9142 18 13.5 18H10.5C10.0858 18 9.75 17.6642 9.75 17.25Z" fill="#2E2559"/>
<path fill-rule="evenodd" clip-rule="evenodd" d="M8.25 9.76367C8.66421 9.76367 9 10.0995 9 10.5137V11.6349C9 12.2915 9.33925 12.9349 9.92067 13.4342C10.5035 13.9346 11.2709 14.2355 12 14.2355C12.7291 14.2355 13.4965 13.9346 14.0793 13.4342C14.6607 12.9349 15 12.2915 15 11.6349V10.5137C15 10.0995 15.3358 9.76367 15.75 9.76367C16.1642 9.76367 16.5 10.0995 16.5 10.5137V11.6349C16.5 12.8262 15.8882 13.8581 15.0565 14.5722C14.2263 15.2851 13.1187 15.7355 12 15.7355C10.8813 15.7355 9.77373 15.2851 8.94347 14.5722C8.11184 13.8581 7.5 12.8262 7.5 11.6349V10.5137C7.5 10.0995 7.83579 9.76367 8.25 9.76367Z" fill="#2E2559"/>
<path fill-rule="evenodd" clip-rule="evenodd" d="M12 14.25C12.4142 14.25 12.75 14.5858 12.75 15V17.25C12.75 17.6642 12.4142 18 12 18C11.5858 18 11.25 17.6642 11.25 17.25V15C11.25 14.5858 11.5858 14.25 12 14.25Z" fill="#2E2559"/>
<path d="M14.25 8.25C14.25 7.00736 13.2426 6 12 6C10.7574 6 9.75 7.00736 9.75 8.25V11.25C9.75 12.4926 10.7574 13.5 12 13.5C13.2426 13.5 14.25 12.4926 14.25 11.25V8.25Z" fill="#2E2559"/>
</svg>
