<svg width="20" height="24" viewBox="0 0 20 24" fill="none" xmlns="http://www.w3.org/2000/svg">
<path d="M9.6 0C8.6064 0 7.8 0.8064 7.8 1.8V2.63438C4.69582 3.43451 2.4 6.24576 2.4 9.6V15.6H16.8V9.6C16.8 6.24576 14.5042 3.43451 11.4 2.63438V1.8C11.4 0.8064 10.5936 0 9.6 0ZM2.4 15.6L0 20.4H7.52344C7.31213 20.7647 7.20058 21.1785 7.2 21.6C7.2 22.2365 7.45286 22.847 7.90294 23.2971C8.35303 23.7471 8.96348 24 9.6 24C10.2365 24 10.847 23.7471 11.2971 23.2971C11.7471 22.847 12 22.2365 12 21.6C11.9987 21.1783 11.8863 20.7644 11.6742 20.4H19.2L16.8 15.6H2.4Z" fill="white"/>
</svg>
