<svg width="27" height="20" viewBox="0 0 27 20" fill="none" xmlns="http://www.w3.org/2000/svg">
<path d="M2.5 20C1.8125 20 1.22417 19.7554 0.735 19.2663C0.245 18.7763 0 18.1875 0 17.5V2.5C0 1.8125 0.245 1.22417 0.735 0.735C1.22417 0.245 1.8125 0 2.5 0H8.96875C9.30208 0 9.62 0.0625001 9.9225 0.1875C10.2242 0.3125 10.4896 0.489583 10.7188 0.71875L12.5 2.5H22.5C23.1875 2.5 23.7763 2.745 24.2663 3.235C24.7554 3.72417 25 4.3125 25 5H5C4.3125 5 3.72417 5.24458 3.235 5.73375C2.745 6.22375 2.5 6.8125 2.5 7.5V17.5L4.96875 9.28125C5.13542 8.73958 5.44292 8.30708 5.89125 7.98375C6.33875 7.66125 6.83333 7.5 7.375 7.5H23.5C24.3542 7.5 25.0263 7.83833 25.5163 8.515C26.0054 9.1925 26.1354 9.92708 25.9062 10.7188L23.6562 18.2188C23.4896 18.7604 23.1825 19.1929 22.735 19.5163C22.2867 19.8388 21.7917 20 21.25 20H2.5Z" fill="white"/>
</svg>
