<svg width="25" height="25" viewBox="0 0 25 25" fill="none" xmlns="http://www.w3.org/2000/svg">
<path d="M21.135 5.3968C21.1344 5.32755 21.1149 5.25978 21.0785 5.20086C21.0421 5.14195 20.9902 5.09414 20.9285 5.06264C20.8669 5.03114 20.7977 5.01716 20.7286 5.02222C20.6596 5.02727 20.5932 5.05117 20.5368 5.0913L19.0508 6.15655L18.9338 6.2408C17.3325 4.6428 15.1348 3.64355 12.6995 3.64355C7.81577 3.64355 3.84277 7.61705 3.84277 12.5006C3.84277 17.3841 7.81602 21.3576 12.6995 21.3576C14.1497 21.3578 15.5778 21.0019 16.8582 20.3211C18.1386 19.6403 19.2323 18.6554 20.043 17.4531C20.0757 17.4049 20.0986 17.3507 20.1104 17.2937C20.1221 17.2366 20.1225 17.1778 20.1114 17.1207C20.1004 17.0635 20.0782 17.009 20.0461 16.9604C20.014 16.9119 19.9726 16.8701 19.9243 16.8376L17.7085 15.2998C17.6043 15.2301 17.4767 15.2044 17.3536 15.2284C17.2306 15.2524 17.122 15.3241 17.0515 15.4278C16.072 16.8758 14.449 17.7403 12.7078 17.7403C9.81827 17.7403 7.46727 15.3898 7.46727 12.5011C7.46727 9.6123 9.81827 7.2618 12.7078 7.2618C13.9273 7.2618 15.0458 7.68581 15.9363 8.38681L15.686 8.5668L14.199 9.6318C14.1429 9.67246 14.0991 9.72773 14.0723 9.79159C14.0455 9.85545 14.0367 9.92545 14.047 9.99395C14.0572 10.0625 14.086 10.1268 14.1304 10.1801C14.1747 10.2333 14.2328 10.2733 14.2983 10.2958L20.6598 12.4631C20.775 12.5033 20.9013 12.4838 21.0018 12.4123C21.1015 12.3398 21.159 12.2256 21.1585 12.1046L21.135 5.3968Z" fill="#2E2559"/>
</svg>
