<svg width="24" height="24" viewBox="0 0 24 24" fill="none" xmlns="http://www.w3.org/2000/svg">
<path d="M14.0732 2.07322C14.0263 2.02634 13.9628 2 13.8964 2H4.25C4.11193 2 4 2.11193 4 2.25V21.75C4 21.8881 4.11193 22 4.25 22H19.75C19.8881 22 20 21.8881 20 21.75V8.10355C20 8.03725 19.9737 7.97366 19.9268 7.92678L14.0732 2.07322ZM12 18C10.0863 18 8.42536 16.9194 7.58654 15.344C7.50181 15.1849 7.62197 15 7.80225 15H8.99984C9.08141 15 9.15738 15.0402 9.20661 15.1052C9.84317 15.9465 10.857 16.5 12 16.5C13.93 16.5 15.5 14.93 15.5 13C15.5 11.07 13.93 9.5 12 9.5C11.3588 9.50236 10.7306 9.68081 10.1839 10.0159C9.68915 10.3191 9.27837 10.7401 8.98753 11.2401C8.9329 11.334 8.9521 11.4521 9.02891 11.5289L10.0732 12.5732C10.2307 12.7307 10.1192 13 9.89645 13H6.75C6.61193 13 6.5 12.8881 6.5 12.75V9.60355C6.5 9.38083 6.76929 9.26929 6.92678 9.42678L7.58099 10.081C7.69365 10.1936 7.88136 10.1734 7.9757 10.045C8.88479 8.80782 10.3414 8 12 8C14.76 8 17 10.24 17 13C17 15.76 14.76 18 12 18Z" fill="#2E2559"/>
</svg>
