<svg width="24" height="24" viewBox="0 0 24 24" fill="none" xmlns="http://www.w3.org/2000/svg">
<circle cx="12" cy="12" r="10" fill="#DCDCDC"/>
<path d="M10 8.40024L10 15.6004C10.0002 15.6733 10.017 15.7448 10.0485 15.8071C10.0801 15.8694 10.1253 15.9203 10.1792 15.9541C10.2331 15.988 10.2936 16.0036 10.3544 15.9993C10.4151 15.995 10.4738 15.9709 10.5239 15.9297L14.865 12.3296C15.045 12.1803 15.045 11.8211 14.865 11.6715L10.5239 8.07143C10.4739 8.02976 10.4152 8.00532 10.3544 8.00078C10.2935 7.99623 10.2328 8.01174 10.1788 8.04564C10.1248 8.07953 10.0796 8.1305 10.048 8.19302C10.0165 8.25554 9.99991 8.32721 10 8.40024Z" fill="#949494"/>
</svg>
