<svg width="18" height="17" viewBox="0 0 18 17" fill="none" xmlns="http://www.w3.org/2000/svg">
<path d="M4.394 16.025C3.93533 16.0083 3.499 15.8893 3.085 15.668C2.67167 15.4473 2.281 15.124 1.913 14.698C1.31033 14.0133 0.841 13.1713 0.505 12.172C0.168333 11.1727 0 10.1347 0 9.058C0 7.80267 0.233667 6.62433 0.701 5.523C1.16833 4.42167 1.81033 3.46267 2.627 2.646C3.44367 1.82933 4.39933 1.18433 5.494 0.711001C6.58867 0.237668 7.75733 0.000668063 9 1.39665e-06C10.2427 -0.00066527 11.4113 0.237335 12.506 0.714002C13.6007 1.19067 14.553 1.83533 15.363 2.648C16.173 3.46067 16.815 4.41733 17.289 5.518C17.763 6.61867 18 7.79267 18 9.04C18 10.118 17.8267 11.1543 17.48 12.149C17.1333 13.1437 16.654 13.999 16.042 14.715C15.6527 15.1557 15.254 15.484 14.846 15.7C14.4387 15.916 14.0067 16.024 13.55 16.024C13.314 16.024 13.0847 15.996 12.862 15.94C12.6387 15.8847 12.4153 15.8013 12.192 15.69L10.792 14.99C10.5153 14.8513 10.223 14.7473 9.915 14.678C9.60633 14.6087 9.295 14.574 8.981 14.574C8.65433 14.574 8.34 14.6087 8.038 14.678C7.736 14.7473 7.45267 14.8513 7.188 14.99L5.808 15.69C5.568 15.818 5.33567 15.9097 5.111 15.965C4.88567 16.021 4.64667 16.0417 4.394 16.025ZM9 10.5C9.422 10.5 9.77733 10.3553 10.066 10.066C10.3553 9.77733 10.5 9.422 10.5 9C10.5 8.85333 10.478 8.71033 10.434 8.571C10.3893 8.431 10.3293 8.301 10.254 8.181L12.1 5.794C12.36 6.04067 12.5837 6.30733 12.771 6.594C12.9583 6.88067 13.1 7.189 13.196 7.519C13.2413 7.645 13.3087 7.75333 13.398 7.844C13.488 7.93533 13.5957 7.981 13.721 7.981C13.901 7.981 14.0353 7.90567 14.124 7.755C14.2133 7.60433 14.229 7.43733 14.171 7.254C13.799 6.13467 13.139 5.22933 12.191 4.538C11.2417 3.846 10.178 3.5 9 3.5C7.818 3.5 6.75033 3.846 5.797 4.538C4.84367 5.22933 4.18133 6.13467 3.81 7.254C3.752 7.43733 3.77067 7.604 3.866 7.754C3.96133 7.904 4.09267 7.97967 4.26 7.981C4.38533 7.981 4.48967 7.93533 4.573 7.844C4.65633 7.75267 4.72067 7.64433 4.766 7.519C5.06333 6.61033 5.60133 5.88 6.38 5.328C7.15867 4.776 8.032 4.5 9 4.5C9.408 4.5 9.80833 4.56 10.201 4.68C10.5937 4.8 10.9647 4.96834 11.314 5.185L9.462 7.583C9.39 7.557 9.313 7.53667 9.231 7.522C9.149 7.50734 9.072 7.5 9 7.5C8.578 7.5 8.22267 7.64467 7.934 7.934C7.64467 8.22267 7.5 8.578 7.5 9C7.5 9.422 7.64467 9.77733 7.934 10.066C8.22333 10.3547 8.57867 10.4993 9 10.5Z" fill="currentColor"/>
</svg>
