<svg width="24" height="24" viewBox="0 0 24 24" fill="none" xmlns="http://www.w3.org/2000/svg">
<path d="M19.0002 7L17.6572 8.343M17.6572 8.343C16.1569 6.84267 14.122 5.99979 12.0002 5.99979C9.87842 5.99979 7.84354 6.84267 6.34321 8.343C4.84288 9.84333 4 11.8782 4 14C4 16.1218 4.84288 18.1567 6.34321 19.657C7.84354 21.1573 9.87842 22.0002 12.0002 22.0002C14.122 22.0002 16.1569 21.1573 17.6572 19.657C19.1575 18.1567 20.0004 16.1218 20.0004 14C20.0004 11.8782 19.1575 9.84333 17.6572 8.343ZM12.0002 10V14M9.00021 3H15.0002" stroke="#2E2559" stroke-width="2" stroke-linecap="round" stroke-linejoin="round"/>
</svg>
