<svg width="14" height="14" viewBox="0 0 14 14" fill="none" xmlns="http://www.w3.org/2000/svg">
<path fill-rule="evenodd" clip-rule="evenodd" d="M9.99992 0C9.60209 0 9.22056 0.158035 8.93926 0.43934C8.65795 0.720644 8.49992 1.10218 8.49992 1.5V12.5C8.49992 12.8978 8.65795 13.2794 8.93926 13.5607C9.22056 13.842 9.60209 14 9.99992 14H12.4999C12.8977 14 13.2793 13.842 13.5606 13.5607C13.8419 13.2794 13.9999 12.8978 13.9999 12.5V1.5C13.9999 1.10218 13.8419 0.720644 13.5606 0.43934C13.2793 0.158035 12.8977 0 12.4999 0L9.99992 0ZM3.49992 4.5C3.50009 4.40098 3.47087 4.30414 3.41594 4.22175C3.36101 4.13936 3.28285 4.07513 3.19138 4.03722C3.09991 3.9993 2.99923 3.9894 2.90213 4.00876C2.80502 4.02813 2.71585 4.07589 2.64592 4.146L0.145917 6.646C0.099354 6.69245 0.0624111 6.74762 0.0372047 6.80837C0.0119982 6.86911 -0.000976562 6.93423 -0.000976562 7C-0.000976562 7.06577 0.0119982 7.13089 0.0372047 7.19163C0.0624111 7.25238 0.099354 7.30755 0.145917 7.354L2.64592 9.854C2.71585 9.92411 2.80502 9.97187 2.90213 9.99124C2.99923 10.0106 3.09991 10.0007 3.19138 9.96278C3.28285 9.92487 3.36101 9.86064 3.41594 9.77825C3.47087 9.69586 3.50009 9.59902 3.49992 9.5V8H6.49992C6.76513 8 7.01949 7.89464 7.20702 7.70711C7.39456 7.51957 7.49992 7.26522 7.49992 7C7.49992 6.73478 7.39456 6.48043 7.20702 6.29289C7.01949 6.10536 6.76513 6 6.49992 6H3.49992V4.5Z" fill="#2E2559"/>
<path d="M4.71973 5V0.757812H5.59863V4.27344H7.42676V5H4.71973Z" fill="#2E2559"/>
</svg>
