<svg width="14" height="14" viewBox="0 0 14 14" fill="none" xmlns="http://www.w3.org/2000/svg">
<path fill-rule="evenodd" clip-rule="evenodd" d="M4.00008 14C4.39791 14 4.77944 13.842 5.06074 13.5607C5.34205 13.2794 5.50008 12.8978 5.50008 12.5L5.50008 1.5C5.50008 1.10217 5.34205 0.720643 5.06074 0.439339C4.77944 0.158034 4.39791 -8.39527e-07 4.00008 -8.74306e-07L1.50008 -1.09286e-06C1.10226 -1.12764e-06 0.720728 0.158034 0.439424 0.439338C0.158119 0.720643 8.40972e-05 1.10217 8.40625e-05 1.5L8.31008e-05 12.5C8.3066e-05 12.8978 0.158118 13.2794 0.439423 13.5607C0.720727 13.842 1.10226 14 1.50008 14L4.00008 14ZM10.5001 9.5C10.4999 9.59902 10.5291 9.69586 10.5841 9.77825C10.639 9.86064 10.7171 9.92487 10.8086 9.96278C10.9001 10.0007 11.0008 10.0106 11.0979 9.99124C11.195 9.97187 11.2842 9.92411 11.3541 9.854L13.8541 7.354C13.9006 7.30755 13.9376 7.25238 13.9628 7.19163C13.988 7.13089 14.001 7.06577 14.001 7C14.001 6.93423 13.988 6.86911 13.9628 6.80837C13.9376 6.74762 13.9006 6.69245 13.8541 6.646L11.3541 4.146C11.2842 4.07589 11.195 4.02813 11.0979 4.00876C11.0008 3.98939 10.9001 3.9993 10.8086 4.03721C10.7171 4.07513 10.639 4.13936 10.5841 4.22175C10.5291 4.30414 10.4999 4.40098 10.5001 4.5L10.5001 6L7.50008 6C7.23487 6 6.98051 6.10536 6.79298 6.29289C6.60544 6.48043 6.50008 6.73478 6.50008 7C6.50008 7.26522 6.60544 7.51957 6.79298 7.70711C6.98051 7.89464 7.23487 8 7.50008 8L10.5001 8L10.5001 9.5Z" fill="#2E2559"/>
</svg>
